
        <svg xmlns="http://www.w3.org/2000/svg" xmlns:xlink="http://www.w3.org/1999/xlink" version="1.1" width="3171.4285714285716" height="2462.5672019340063" viewBox="0 0 3171.4285714285716 2462.5672019340063">
			
			<g transform="scale(8.57142857142857) translate(10, 10)">
				<defs id="SvgjsDefs10597"/><g id="SvgjsG10598" featureKey="symbolFeature-0" transform="matrix(1.558526873588562,0,0,1.558526873588562,97.05807886706205,-7.941921132937942)" fill="#000"><title xmlns="http://www.w3.org/2000/svg">Mandala</title><path xmlns="http://www.w3.org/2000/svg" d="M62.86,72.35a8.49,8.49,0,0,0-3.2-1.56,11,11,0,0,1-2.94-1.3A5.33,5.33,0,0,1,55.29,68,3.23,3.23,0,0,1,55,67.23a4.09,4.09,0,0,1,.68-2.6,5.84,5.84,0,0,0,.87-3.23,5.84,5.84,0,0,0,3.23.86,4.09,4.09,0,0,1,2.59.71,3.22,3.22,0,0,1,.54.61,5.33,5.33,0,0,1,.57,2,11,11,0,0,1-.34,3.19,8.49,8.49,0,0,0-.24,3.55l-0.1-.1ZM50,75.78l0-.13,0,0.13a8.49,8.49,0,0,0-2-3,11,11,0,0,1-1.89-2.59,5.33,5.33,0,0,1-.51-2,3.23,3.23,0,0,1,.16-0.79,4.09,4.09,0,0,1,1.89-1.91A5.84,5.84,0,0,0,50,63.16a5.84,5.84,0,0,0,2.37,2.36,4.09,4.09,0,0,1,1.89,1.91,3.22,3.22,0,0,1,.16.79,5.33,5.33,0,0,1-.51,2A11,11,0,0,1,52,72.83,8.49,8.49,0,0,0,50,75.78ZM52.65,65.1a4.78,4.78,0,0,1-2.4-2.74L50,61.46l-0.24.9a4.78,4.78,0,0,1-2.4,2.74,5.7,5.7,0,0,0-1.79,1.56V66.55l-0.05.09a5.7,5.7,0,0,0-.77-2.24A4.78,4.78,0,0,1,44,60.83l0.24-.9-0.66.65a4.78,4.78,0,0,1-3.45,1.18,5.7,5.7,0,0,0-2.33.45l0.05-.09-0.09.05a5.7,5.7,0,0,0,.45-2.33,4.78,4.78,0,0,1,1.18-3.45l0.65-.66-0.9.24a4.78,4.78,0,0,1-3.58-.71,5.7,5.7,0,0,0-2.24-.77l0.09-.05H33.34a5.7,5.7,0,0,0,1.56-1.79,4.78,4.78,0,0,1,2.74-2.4l0.9-.24-0.9-.24a4.78,4.78,0,0,1-2.74-2.4,5.7,5.7,0,0,0-1.56-1.79h0.11l-0.09-.05a5.71,5.71,0,0,0,2.24-.77A4.78,4.78,0,0,1,39.17,44l0.9,0.24-0.65-.66a4.78,4.78,0,0,1-1.18-3.45,5.7,5.7,0,0,0-.45-2.33l0.09,0.05-0.05-.09a5.7,5.7,0,0,0,2.33.45,4.78,4.78,0,0,1,3.45,1.17l0.66,0.65L44,39.17a4.78,4.78,0,0,1,.71-3.58,5.7,5.7,0,0,0,.77-2.24l0.05,0.09V33.34a5.7,5.7,0,0,0,1.79,1.56,4.78,4.78,0,0,1,2.4,2.74L50,38.54l0.24-.9a4.78,4.78,0,0,1,2.4-2.74,5.7,5.7,0,0,0,1.79-1.56v0.11l0.05-.09a5.7,5.7,0,0,0,.77,2.24A4.78,4.78,0,0,1,56,39.17l-0.24.9,0.66-.65a4.78,4.78,0,0,1,3.45-1.18,5.7,5.7,0,0,0,2.33-.45l-0.05.09,0.09-.05a5.7,5.7,0,0,0-.45,2.33,4.78,4.78,0,0,1-1.18,3.45l-0.65.66,0.9-.24a4.78,4.78,0,0,1,3.58.71,5.7,5.7,0,0,0,2.24.77l-0.09.05h0.11a5.7,5.7,0,0,0-1.56,1.79,4.78,4.78,0,0,1-2.74,2.4l-0.9.24,0.9,0.24a4.78,4.78,0,0,1,2.74,2.4,5.7,5.7,0,0,0,1.56,1.79H66.55l0.09,0.05a5.7,5.7,0,0,0-2.24.77,4.78,4.78,0,0,1-3.58.71l-0.9-.24,0.65,0.66a4.78,4.78,0,0,1,1.18,3.45,5.7,5.7,0,0,0,.45,2.33l-0.09-.05,0.05,0.09a5.7,5.7,0,0,0-2.33-.45,4.78,4.78,0,0,1-3.45-1.18l-0.66-.65L56,60.83a4.78,4.78,0,0,1-.71,3.58,5.7,5.7,0,0,0-.77,2.24l-0.05-.09v0.11A5.7,5.7,0,0,0,52.65,65.1ZM37.14,27.65a8.49,8.49,0,0,0,3.2,1.56,11,11,0,0,1,2.94,1.3A5.33,5.33,0,0,1,44.71,32a3.23,3.23,0,0,1,.25.77,4.09,4.09,0,0,1-.68,2.6,5.84,5.84,0,0,0-.87,3.23,5.84,5.84,0,0,0-3.23-.86A4.09,4.09,0,0,1,37.59,37a3.22,3.22,0,0,1-.54-0.61,5.33,5.33,0,0,1-.57-2,11,11,0,0,1,.34-3.19,8.48,8.48,0,0,0,.24-3.55l0.1,0.1ZM37,62.41a3.22,3.22,0,0,1-.61.54,5.33,5.33,0,0,1-2,.57,11,11,0,0,1-3.19-.34,8.49,8.49,0,0,0-3.55-.24l0.1-.1-0.13,0a8.49,8.49,0,0,0,1.56-3.2,11,11,0,0,1,1.3-2.94A5.33,5.33,0,0,1,32,55.29,3.23,3.23,0,0,1,32.77,55a4.09,4.09,0,0,1,2.6.68,5.84,5.84,0,0,0,3.23.87,5.84,5.84,0,0,0-.86,3.23A4.09,4.09,0,0,1,37,62.41Zm-5.26-8a5.33,5.33,0,0,1-2-.51A11,11,0,0,1,27.17,52a8.48,8.48,0,0,0-3-2l0.13,0-0.13,0a8.49,8.49,0,0,0,3-2,11,11,0,0,1,2.59-1.89,5.33,5.33,0,0,1,2-.51,3.23,3.23,0,0,1,.79.16,4.09,4.09,0,0,1,1.91,1.89A5.84,5.84,0,0,0,36.84,50a5.84,5.84,0,0,0-2.36,2.37,4.09,4.09,0,0,1-1.91,1.89A3.22,3.22,0,0,1,31.77,54.42Zm1-9.45A3.22,3.22,0,0,1,32,44.71a5.33,5.33,0,0,1-1.49-1.44,11,11,0,0,1-1.3-2.94,8.49,8.49,0,0,0-1.56-3.19l0.13,0-0.1-.1a8.49,8.49,0,0,0,3.55-.24,11,11,0,0,1,3.19-.34,5.33,5.33,0,0,1,2,.57,3.23,3.23,0,0,1,.6.54,4.09,4.09,0,0,1,.71,2.59,5.84,5.84,0,0,0,.86,3.23,5.84,5.84,0,0,0-3.23.87A4.09,4.09,0,0,1,32.77,45Zm3.3-17.9c0.61,1.24.33,2.59,0,4a8.73,8.73,0,0,0,0,5,8.73,8.73,0,0,0-5,0c-1.43.3-2.78,0.58-4,0a4.83,4.83,0,0,1-.84-0.52,8.09,8.09,0,0,1-1.53-3,19.16,19.16,0,0,1-.51-4c-0.12-2.13-.24-4.15-1.49-5.84,1.69,1.25,3.71,1.37,5.84,1.49a19.15,19.15,0,0,1,4,.51,8.09,8.09,0,0,1,3,1.53A4.85,4.85,0,0,1,36.06,27.07Zm-9.6,10c1.14,0.77,1.58,2.08,2,3.46A8.73,8.73,0,0,0,31,44.91a8.73,8.73,0,0,0-4.33,2.51c-1.09,1-2.12,1.89-3.49,2a4.82,4.82,0,0,1-1,0,8.09,8.09,0,0,1-2.84-1.86,19.16,19.16,0,0,1-2.42-3.18c-1.17-1.79-2.28-3.48-4.22-4.32a5.93,5.93,0,0,0,.69,0,11.58,11.58,0,0,0,5.12-1.67,19.16,19.16,0,0,1,3.68-1.54,8.09,8.09,0,0,1,3.4-.19A4.85,4.85,0,0,1,26.46,37.11ZM22.19,50.63a4.85,4.85,0,0,1,1,0c1.38,0.09,2.4,1,3.49,2A8.73,8.73,0,0,0,31,55.09a8.73,8.73,0,0,0-2.5,4.34c-0.46,1.39-.89,2.69-2,3.46a4.83,4.83,0,0,1-.87.46,8.09,8.09,0,0,1-3.39-.19,19.16,19.16,0,0,1-3.68-1.54c-1.91-1-3.72-1.87-5.8-1.63,1.93-.83,3-2.53,4.21-4.31a19.16,19.16,0,0,1,2.42-3.18A8.09,8.09,0,0,1,22.19,50.63Zm4,13.82a4.85,4.85,0,0,1,.84-0.52c1.24-.61,2.59-0.33,4,0a8.73,8.73,0,0,0,5,0,8.73,8.73,0,0,0,0,5c0.3,1.43.58,2.78,0,4a4.83,4.83,0,0,1-.52.84,8.09,8.09,0,0,1-3,1.53,19.15,19.15,0,0,1-4,.51c-2.13.12-4.15,0.24-5.84,1.49,1.25-1.69,1.37-3.71,1.49-5.84a19.15,19.15,0,0,1,.51-4A8.09,8.09,0,0,1,26.23,64.45Zm10.85,7.86a8.49,8.49,0,0,0-.24-3.55,11,11,0,0,1-.34-3.19,5.33,5.33,0,0,1,.57-2,3.23,3.23,0,0,1,.54-0.6,4.09,4.09,0,0,1,2.59-.71,5.84,5.84,0,0,0,3.23-.86,5.84,5.84,0,0,0,.87,3.23,4.09,4.09,0,0,1,.68,2.6,3.22,3.22,0,0,1-.26.77,5.33,5.33,0,0,1-1.44,1.49,11,11,0,0,1-2.94,1.3,8.48,8.48,0,0,0-3.19,1.56l0-.13ZM50,24.22l0,0.13,0-.13a8.49,8.49,0,0,0,2,3,11,11,0,0,1,1.89,2.59,5.33,5.33,0,0,1,.51,2,3.23,3.23,0,0,1-.16.79,4.09,4.09,0,0,1-1.89,1.91A5.84,5.84,0,0,0,50,36.84a5.84,5.84,0,0,0-2.37-2.36,4.09,4.09,0,0,1-1.89-1.91,3.22,3.22,0,0,1-.16-0.79,5.33,5.33,0,0,1,.51-2A11,11,0,0,1,48,27.17,8.49,8.49,0,0,0,50,24.22ZM75.79,50a8.49,8.49,0,0,0-3,2,11,11,0,0,1-2.59,1.89,5.33,5.33,0,0,1-2,.51,3.23,3.23,0,0,1-.79-0.16,4.09,4.09,0,0,1-1.91-1.89A5.84,5.84,0,0,0,63.16,50a5.84,5.84,0,0,0,2.36-2.37,4.09,4.09,0,0,1,1.91-1.89,3.22,3.22,0,0,1,.79-0.16,5.33,5.33,0,0,1,2,.51A11,11,0,0,1,72.83,48a8.48,8.48,0,0,0,3,2l-0.13,0ZM72.31,62.92a8.49,8.49,0,0,0-3.55.24,11,11,0,0,1-3.19.34,5.33,5.33,0,0,1-2-.57,3.23,3.23,0,0,1-.6-0.54,4.09,4.09,0,0,1-.71-2.59,5.84,5.84,0,0,0-.86-3.23,5.84,5.84,0,0,0,3.23-.87,4.09,4.09,0,0,1,2.6-.68,3.22,3.22,0,0,1,.77.26,5.33,5.33,0,0,1,1.49,1.44,11,11,0,0,1,1.3,2.94,8.49,8.49,0,0,0,1.56,3.19l-0.13,0ZM68,44.71a3.23,3.23,0,0,1-.77.25,4.09,4.09,0,0,1-2.6-.68,5.84,5.84,0,0,0-3.23-.87,5.84,5.84,0,0,0,.86-3.23A4.09,4.09,0,0,1,63,37.59a3.22,3.22,0,0,1,.61-0.54,5.33,5.33,0,0,1,2-.57,11,11,0,0,1,3.19.34,8.49,8.49,0,0,0,3.55.24l-0.1.1,0.13,0a8.49,8.49,0,0,0-1.56,3.2,11,11,0,0,1-1.3,2.94A5.33,5.33,0,0,1,68,44.71Zm4.94-8.65c-1.24.61-2.59,0.33-4,0a8.73,8.73,0,0,0-5,0,8.73,8.73,0,0,0,0-5c-0.3-1.43-.58-2.78,0-4a4.82,4.82,0,0,1,.52-0.84,8.09,8.09,0,0,1,3-1.53,19.16,19.16,0,0,1,4-.51c2.13-.12,4.15-0.24,5.84-1.49-1.25,1.69-1.37,3.71-1.49,5.84a19.15,19.15,0,0,1-.51,4,8.09,8.09,0,0,1-1.53,3A4.85,4.85,0,0,1,72.93,36.06Zm-10-8.38a8.49,8.49,0,0,0,.24,3.55,11,11,0,0,1,.34,3.19,5.33,5.33,0,0,1-.57,2,3.23,3.23,0,0,1-.54.6,4.09,4.09,0,0,1-2.59.71,5.84,5.84,0,0,0-3.23.86,5.84,5.84,0,0,0-.87-3.23,4.09,4.09,0,0,1-.68-2.6A3.22,3.22,0,0,1,55.29,32a5.33,5.33,0,0,1,1.44-1.49,11,11,0,0,1,2.94-1.3,8.48,8.48,0,0,0,3.19-1.56l0,0.13Zm1,45.25c-0.61-1.24-.33-2.59,0-4a8.73,8.73,0,0,0,0-5,8.73,8.73,0,0,0,5,0c1.43-.3,2.78-0.58,4,0a4.83,4.83,0,0,1,.84.52,8.09,8.09,0,0,1,1.53,3,19.15,19.15,0,0,1,.51,4c0.12,2.13.24,4.15,1.49,5.84-1.69-1.25-3.71-1.37-5.84-1.49a19.15,19.15,0,0,1-4-.51,8.09,8.09,0,0,1-3-1.53A4.84,4.84,0,0,1,63.94,72.93Zm9.6-10c-1.14-.77-1.58-2.08-2-3.46A8.73,8.73,0,0,0,69,55.09a8.73,8.73,0,0,0,4.33-2.51c1.09-1,2.12-1.89,3.49-2a4.83,4.83,0,0,1,1,0,8.09,8.09,0,0,1,2.84,1.86,19.16,19.16,0,0,1,2.42,3.18c1.17,1.79,2.28,3.48,4.21,4.31-2.09-.24-3.9.67-5.8,1.63a19.15,19.15,0,0,1-3.68,1.54,8.09,8.09,0,0,1-3.4.19A4.85,4.85,0,0,1,73.54,62.89Zm4.28-13.53a4.85,4.85,0,0,1-1,0c-1.38-.09-2.4-1-3.49-2A8.73,8.73,0,0,0,69,44.91a8.73,8.73,0,0,0,2.5-4.34c0.46-1.39.89-2.69,2-3.46a4.83,4.83,0,0,1,.87-0.46,8.09,8.09,0,0,1,3.39.19,19.15,19.15,0,0,1,3.68,1.54A11.57,11.57,0,0,0,86.6,40a6,6,0,0,0,.69,0c-1.93.83-3,2.53-4.22,4.32a19.16,19.16,0,0,1-2.42,3.18A8.09,8.09,0,0,1,77.81,49.37Zm3.75-28.72,0.66-.18a9.06,9.06,0,0,1,1.21-.18,37.56,37.56,0,0,1,9,15.63,8.81,8.81,0,0,1-.7.89c-0.18.17-.37,0.35-0.57,0.57a7.3,7.3,0,0,1-3.58,1.83c-2,.4-3.85-0.52-5.78-1.49a13.6,13.6,0,0,0-6.19-1.91,8.61,8.61,0,0,0-1.15.08c1.8-2.33,1.95-4.94,2.08-7.28,0.12-2.15.24-4.19,1.6-5.75A7.3,7.3,0,0,1,81.56,20.64ZM60.8,12.4a7.3,7.3,0,0,1,1.85-3.6c0.17-.16.33-0.32,0.48-0.48a9.07,9.07,0,0,1,1-.76,37.56,37.56,0,0,1,15.63,9,8.81,8.81,0,0,1-.16,1.12c-0.07.23-.14,0.49-0.21,0.77a7.3,7.3,0,0,1-2.19,3.38c-1.56,1.36-3.6,1.48-5.75,1.6-2.33.13-4.95,0.28-7.28,2.08,0.39-2.92-.78-5.26-1.84-7.34C61.32,16.25,60.41,14.43,60.8,12.4Zm0.82,6.12a19.15,19.15,0,0,1,1.54,3.68,8.09,8.09,0,0,1,.19,3.4,4.85,4.85,0,0,1-.46.87c-0.77,1.14-2.08,1.58-3.46,2A8.73,8.73,0,0,0,55.09,31a8.73,8.73,0,0,0-2.51-4.33c-1-1.09-1.89-2.12-2-3.49a4.83,4.83,0,0,1,0-1,8.09,8.09,0,0,1,1.86-2.84,19.15,19.15,0,0,1,3.18-2.42c1.79-1.17,3.48-2.28,4.31-4.21C59.75,14.8,60.66,16.61,61.62,18.52ZM40.36,8c0.07-.22.13-0.44,0.18-0.66A9.07,9.07,0,0,1,41,6.19a37.56,37.56,0,0,1,18,0,8.82,8.82,0,0,1,.42,1c0.05,0.24.12,0.49,0.21,0.77a7.3,7.3,0,0,1-.21,4c-0.67,2-2.38,3.08-4.18,4.26-2,1.28-4.14,2.72-5.26,5.44-1.12-2.72-3.31-4.16-5.26-5.44-1.8-1.18-3.51-2.3-4.18-4.26A7.3,7.3,0,0,1,40.36,8ZM40,12.71c0.83,1.93,2.53,3,4.31,4.21a19.15,19.15,0,0,1,3.18,2.42,8.09,8.09,0,0,1,1.87,2.84,4.85,4.85,0,0,1,0,1c-0.09,1.38-1,2.4-2,3.49A8.73,8.73,0,0,0,44.91,31a8.73,8.73,0,0,0-4.34-2.5c-1.39-.46-2.69-0.89-3.46-2a4.83,4.83,0,0,1-.46-0.87,8.09,8.09,0,0,1,.19-3.39,19.15,19.15,0,0,1,1.54-3.68C39.34,16.61,40.25,14.8,40,12.71ZM20.64,18.44c-0.05-.22-0.11-0.45-0.18-0.66a9.07,9.07,0,0,1-.18-1.21,37.56,37.56,0,0,1,15.63-9,8.82,8.82,0,0,1,.89.7c0.17,0.18.35,0.37,0.57,0.57a7.3,7.3,0,0,1,1.83,3.58c0.4,2-.52,3.85-1.49,5.78-1.05,2.09-2.23,4.42-1.84,7.34-2.33-1.8-4.94-1.95-7.28-2.08-2.15-.12-4.19-0.24-5.75-1.6A7.3,7.3,0,0,1,20.64,18.44ZM8.8,37.35C8.64,37.18,8.48,37,8.31,36.86a9.06,9.06,0,0,1-.76-1,37.56,37.56,0,0,1,9-15.63,8.83,8.83,0,0,1,1.12.16c0.23,0.07.49,0.14,0.77,0.21a7.3,7.3,0,0,1,3.38,2.19c1.36,1.56,1.48,3.6,1.6,5.75,0.13,2.33.28,4.95,2.08,7.28-2.92-.39-5.26.78-7.34,1.84-1.93,1-3.75,1.89-5.78,1.49A7.3,7.3,0,0,1,8.8,37.35ZM8,59.64l-0.66-.18A9.07,9.07,0,0,1,6.19,59a37.56,37.56,0,0,1,0-18,8.82,8.82,0,0,1,1-.42c0.24-.05.49-0.12,0.77-0.21a7.3,7.3,0,0,1,4,.21c2,0.67,3.08,2.38,4.26,4.18,1.28,2,2.72,4.14,5.44,5.26-2.72,1.12-4.16,3.31-5.44,5.26-1.18,1.8-2.3,3.51-4.26,4.18A7.3,7.3,0,0,1,8,59.64ZM18.44,79.36l-0.66.18a9.06,9.06,0,0,1-1.21.18,37.56,37.56,0,0,1-9-15.63,8.83,8.83,0,0,1,.7-0.89c0.18-.17.37-0.35,0.57-0.57a7.3,7.3,0,0,1,3.58-1.83c2-.4,3.85.52,5.78,1.49,2.09,1.05,4.42,2.23,7.34,1.84-1.8,2.33-1.95,4.94-2.08,7.28-0.12,2.15-.24,4.19-1.6,5.75A7.3,7.3,0,0,1,18.44,79.36ZM39.2,87.6a7.3,7.3,0,0,1-1.85,3.6c-0.17.16-.33,0.32-0.48,0.48a9.05,9.05,0,0,1-1,.76,37.56,37.56,0,0,1-15.63-9,8.81,8.81,0,0,1,.16-1.12c0.07-.23.14-0.49,0.21-0.77a7.3,7.3,0,0,1,2.19-3.38c1.56-1.36,3.6-1.48,5.75-1.6,2.33-.13,4.95-0.28,7.28-2.08-0.39,2.92.78,5.26,1.84,7.34C38.68,83.75,39.59,85.57,39.2,87.6Zm-0.82-6.12a19.16,19.16,0,0,1-1.54-3.68,8.09,8.09,0,0,1-.19-3.4,4.84,4.84,0,0,1,.46-0.87c0.77-1.14,2.08-1.58,3.46-2A8.73,8.73,0,0,0,44.91,69a8.73,8.73,0,0,0,2.51,4.33c1,1.09,1.89,2.12,2,3.49a4.83,4.83,0,0,1,0,1,8.09,8.09,0,0,1-1.86,2.84,19.15,19.15,0,0,1-3.18,2.42c-1.79,1.17-3.48,2.28-4.31,4.21C40.25,85.2,39.34,83.39,38.38,81.48ZM59.64,92c-0.07.22-.13,0.44-0.18,0.66A9.05,9.05,0,0,1,59,93.81a37.56,37.56,0,0,1-18,0,8.83,8.83,0,0,1-.42-1c-0.05-.24-0.12-0.49-0.21-0.77a7.3,7.3,0,0,1,.21-4c0.67-2,2.38-3.08,4.18-4.26,2-1.28,4.14-2.72,5.26-5.44,1.12,2.72,3.31,4.16,5.26,5.44,1.8,1.18,3.51,2.3,4.18,4.26A7.3,7.3,0,0,1,59.64,92ZM60,87.29c-0.83-1.93-2.53-3-4.31-4.21a19.15,19.15,0,0,1-3.18-2.42,8.09,8.09,0,0,1-1.87-2.84,4.84,4.84,0,0,1,0-1c0.09-1.38,1-2.4,2-3.49A8.73,8.73,0,0,0,55.09,69a8.73,8.73,0,0,0,4.34,2.5c1.39,0.46,2.69.89,3.46,2a4.83,4.83,0,0,1,.46.87,8.09,8.09,0,0,1-.19,3.39,19.16,19.16,0,0,1-1.54,3.68C60.66,83.39,59.75,85.2,60,87.29Zm19.36-5.73c0.05,0.22.11,0.45,0.18,0.66a9.08,9.08,0,0,1,.18,1.21,37.56,37.56,0,0,1-15.63,9,8.81,8.81,0,0,1-.89-0.7c-0.17-.18-0.35-0.37-0.57-0.57a7.3,7.3,0,0,1-1.83-3.58c-0.4-2,.52-3.85,1.49-5.78,1.05-2.09,2.23-4.42,1.84-7.34,2.33,1.8,4.94,1.95,7.28,2.08,2.15,0.12,4.19.24,5.75,1.6A7.3,7.3,0,0,1,79.36,81.56ZM91.2,62.65c0.16,0.17.32,0.33,0.48,0.48a9.08,9.08,0,0,1,.76,1,37.56,37.56,0,0,1-9,15.63,8.83,8.83,0,0,1-1.12-.16c-0.23-.07-0.49-0.14-0.77-0.21a7.3,7.3,0,0,1-3.38-2.19c-1.36-1.56-1.48-3.6-1.6-5.75-0.13-2.33-.28-4.95-2.08-7.28,2.92,0.39,5.26-.78,7.34-1.84,1.93-1,3.75-1.89,5.78-1.49A7.3,7.3,0,0,1,91.2,62.65ZM93.81,59a8.82,8.82,0,0,1-1,.42c-0.24.05-.49,0.12-0.77,0.21a7.3,7.3,0,0,1-4-.21c-2-.67-3.08-2.38-4.26-4.18-1.28-2-2.72-4.14-5.44-5.26,2.72-1.12,4.16-3.31,5.44-5.26,1.18-1.8,2.3-3.51,4.26-4.18a7.3,7.3,0,0,1,4-.2l0.66,0.18a9.07,9.07,0,0,1,1.14.44A37.56,37.56,0,0,1,93.81,59Z"/></g><g id="SvgjsG10599" featureKey="nameFeature-0" transform="matrix(2.0828869342803955,0,0,2.0828869342803955,-3.4992505726268046,136.67166549768226)" fill="#000"><path d="M16.08 20 l6 0 l0 10 c0 6.12 -4.24 10.2 -10.2 10.2 c-6.12 0 -10.2 -4.28 -10.2 -10.2 l0 -10 l6 0 l0 10 c0 2.68 1.36 4.64 4.2 4.64 c2.92 0 4.2 -1.92 4.2 -4.64 l0 -10 z M35.268 30 c0 2.96 1.48 4.64 4.48 4.64 c0.84 0 1.6 -0.12 2.2 -0.4 c1.12 -0.44 1.88 -1.28 2.28 -2.44 c0.16 -0.56 0.24 -1.16 0.24 -1.8 s-0.08 -1.24 -0.24 -1.8 c-0.44 -1.24 -1.12 -1.92 -2.28 -2.48 c-0.6 -0.24 -1.36 -0.36 -2.2 -0.36 c-3 0 -4.48 1.68 -4.48 4.64 z M29.268 12 l6 0 l0 10 c1.36 -1.56 3.2 -2.2 5.24 -2.2 c5.84 0 9.96 4.68 9.96 10.28 c0 6.32 -4.68 10.12 -10.64 10.12 c-6.2 0 -10.56 -4.08 -10.56 -10.2 l0 -18 z M56.256 20 l6 0 l0 20 l-6 0 l0 -20 z M59.256 18.12 c-2.04 0 -3.48 -1.44 -3.48 -3.48 c0 -2.08 1.44 -3.44 3.48 -3.44 c2.08 0 3.44 1.36 3.44 3.44 c0 2.12 -1.32 3.48 -3.44 3.48 z M83.684 30 c0 -3 -1.48 -4.64 -4.52 -4.64 c-0.84 0 -1.56 0.12 -2.16 0.36 c-1.12 0.52 -1.88 1.28 -2.24 2.48 c-0.2 0.56 -0.28 1.16 -0.28 1.8 s0.08 1.24 0.28 1.8 c0.32 1.16 1.16 2 2.24 2.44 c0.6 0.28 1.32 0.4 2.16 0.4 c3.04 0 4.52 -1.64 4.52 -4.64 z M89.684 30 l0 18 l-6 0 l0 -10.04 c-1.4 1.6 -3.28 2.24 -5.36 2.24 c-5.72 0 -9.84 -4.76 -9.84 -10.28 c0 -6.32 4.68 -10.12 10.64 -10.12 c6.28 0 10.56 4 10.56 10.2 z M104.19200000000001 36.76 c0 2.04 -1.4 3.44 -3.44 3.44 s-3.48 -1.36 -3.48 -3.44 c0 -2.04 1.44 -3.48 3.48 -3.48 c2.12 0 3.44 1.36 3.44 3.48 z M125.82 30 c-0.16 -2.92 -1.48 -4.64 -4.52 -4.64 c-0.84 0 -1.56 0.12 -2.16 0.36 c-1.84 0.84 -2.52 2.4 -2.52 4.32 c0 0.64 0.08 1.24 0.28 1.76 c0.6 2.08 2.4 2.84 4.4 2.84 c3.04 0 4.52 -1.64 4.52 -4.64 z M133.42000000000002 40 l-6 0 c-0.4 -1 -0.76 -2 -1 -3.04 c-1.36 2.24 -3.44 3.24 -6 3.24 c-5.72 0 -9.8 -4.8 -9.8 -10.28 c0 -6.32 4.72 -10.12 10.68 -10.12 c6.36 0 10.36 4.08 10.52 10.2 c0.04 0.52 0.04 1.12 0.04 1.84 c0 2.8 0.44 5.6 1.56 8.16 z M145.008 30 l0 10 l-6 0 l0 -9.96 c0 -6.64 4.88 -10.24 11.04 -10.24 c0.2 0 0.48 0 0.76 0.04 s0.6 0.12 0.88 0.16 l0 5.8 c-0.2 -0.04 -0.44 -0.08 -0.72 -0.12 s-0.52 -0.08 -0.72 -0.08 c-1 0 -1.8 0.12 -2.48 0.32 c-1.12 0.4 -2.12 1.16 -2.48 2.36 c-0.2 0.52 -0.28 1.12 -0.28 1.72 z M168.556 20.68 l0 5.56 l-5.6 0 l0 3.76 c0 3.08 2.04 4.64 5 4.64 c0.36 0 0.68 -0.04 0.96 -0.08 s0.52 -0.08 0.8 -0.12 l0 5.56 c-0.36 0.04 -0.64 0.12 -0.84 0.16 c-0.24 0.04 -0.64 0.04 -1.16 0.04 c-6.04 0 -10.76 -4.12 -10.76 -10.2 l0 -14.8 l6 0 l0 5.48 l5.6 0 z"/></g><g id="SvgjsG10600" featureKey="sloganFeature-0" transform="matrix(1.2418431043624878,0,0,1.2418431043624878,-2.856237642530485,243.0338935070363)" fill="#000"><path d="M2.3 15.879999999999999 l0 -4.82 c0 -2.88 1.58 -3.74 3.9 -3.74 c1.92 0 3.78 0.98 3.78 3 c0 0.44 -0.32 0.66 -0.66 0.66 s-0.68 -0.22 -0.68 -0.66 c0 -1.02 -1.12 -1.7 -2.44 -1.7 c-1.82 0 -2.58 0.74 -2.58 2.44 l0 4.82 c0 1.74 0.96 2.28 2.58 2.28 c1.92 0 2.6 -0.92 2.6 -2.7 l0 -0.84 l-1.8 0 c-0.42 0 -0.64 -0.32 -0.64 -0.66 s0.22 -0.68 0.64 -0.68 l2.5 0 c0.4 0 0.62 0.4 0.62 0.68 l0 1.5 c0 2.88 -1.12 4 -3.92 4 c-2.64 0 -3.9 -0.96 -3.9 -3.58 z M18.9195 18.7 l0 -10.64 c0 -0.46 0.36 -0.7 0.7 -0.7 l4.6 0 c0.44 0 0.66 0.32 0.66 0.66 s-0.22 0.68 -0.66 0.68 l-3.96 0 l0 3.88 l3.14 0 c0.46 0 0.68 0.32 0.68 0.66 s-0.24 0.7 -0.68 0.7 l-3.14 0 l0 4.14 l3.96 0 c0.42 0 0.64 0.34 0.64 0.66 c0 0.34 -0.22 0.66 -0.64 0.66 l-4.6 0 c-0.34 0 -0.7 -0.12 -0.7 -0.7 z M40.379 8 l0 10.76 c0 0.42 -0.32 0.64 -0.64 0.64 c-0.24 0 -0.56 -0.18 -0.7 -0.44 c-1.5 -2.94 -2.62 -5.2 -4.12 -8.16 l0 7.96 c0 0.42 -0.32 0.64 -0.66 0.64 c-0.32 0 -0.66 -0.22 -0.66 -0.64 l0 -10.76 c0 -0.7 1 -0.74 1.22 -0.32 l4.22 8.34 l0 -8.02 c0 -0.42 0.32 -0.64 0.66 -0.64 s0.68 0.22 0.68 0.64 z M49.558499999999995 18.7 l0 -10.64 c0 -0.46 0.36 -0.7 0.7 -0.7 l4.6 0 c0.44 0 0.66 0.32 0.66 0.66 s-0.22 0.68 -0.66 0.68 l-3.96 0 l0 3.88 l3.14 0 c0.46 0 0.68 0.32 0.68 0.66 s-0.24 0.7 -0.68 0.7 l-3.14 0 l0 4.14 l3.96 0 c0.42 0 0.64 0.34 0.64 0.66 c0 0.34 -0.22 0.66 -0.64 0.66 l-4.6 0 c-0.34 0 -0.7 -0.12 -0.7 -0.7 z M65.57799999999999 15.9 l0 2.86 c0 0.44 -0.34 0.64 -0.66 0.64 c-0.34 0 -0.66 -0.2 -0.66 -0.64 l0 -10.74 c0 -0.4 0.22 -0.66 0.66 -0.66 l2.7 0 c0.76 0 3.16 0.22 3.16 2.92 l0 2.5 c0 1.52 -0.56 2.48 -1.84 2.9 l1.36 2.74 c0.28 0.54 -0.14 0.98 -0.58 0.98 c-0.24 0 -0.54 -0.16 -0.7 -0.5 l-1.46 -3 l-1.98 0 z M69.458 12.780000000000001 l0 -2.5 c0 -0.48 -0.18 -1.58 -1.84 -1.58 l-2.04 0 l0 5.86 l1.86 0 c0.98 0 2.02 -0.22 2.02 -1.78 z M85.6175 18.86 l-0.78 -2.54 l-3.72 0 l-0.74 2.5 c-0.26 0.86 -1.58 0.6 -1.3 -0.28 c1.04 -3.5 2.06 -7.06 3.08 -10.6 c0.12 -0.38 0.44 -0.58 0.76 -0.58 c0.3 0 0.62 0.2 0.74 0.58 l3.18 10.6 c0.22 0.76 -0.96 1.18 -1.22 0.32 z M82.9575 10.06 l-1.44 4.92 l2.94 0 c-0.5 -1.68 -0.96 -3.12 -1.5 -4.92 z M95.037 7.359999999999999 l6.04 0 c0.42 0 0.62 0.34 0.62 0.68 s-0.2 0.66 -0.62 0.66 l-2.28 0 l0 10.06 c0 0.42 -0.34 0.64 -0.68 0.64 s-0.66 -0.22 -0.66 -0.64 l0 -10.06 l-2.42 0 c-0.42 0 -0.62 -0.32 -0.62 -0.66 s0.2 -0.68 0.62 -0.68 z M110.05650000000001 18.78 l0 -10.78 c0 -0.42 0.32 -0.64 0.64 -0.64 s0.66 0.22 0.66 0.64 l0 10.78 c0 0.86 -1.3 0.86 -1.3 0 z M121.05600000000001 7.800000000000001 l2.62 9.02 l2.74 -8.98 c0.26 -0.86 1.48 -0.52 1.24 0.32 l-3.2 10.68 c-0.1 0.36 -0.42 0.56 -0.76 0.56 s-0.7 -0.2 -0.8 -0.56 l-3.06 -10.66 c-0.26 -0.9 1 -1.16 1.22 -0.38 z M136.09550000000002 18.7 l0 -10.64 c0 -0.46 0.36 -0.7 0.7 -0.7 l4.6 0 c0.44 0 0.66 0.32 0.66 0.66 s-0.22 0.68 -0.66 0.68 l-3.96 0 l0 3.88 l3.14 0 c0.46 0 0.68 0.32 0.68 0.66 s-0.24 0.7 -0.68 0.7 l-3.14 0 l0 4.14 l3.96 0 c0.42 0 0.64 0.34 0.64 0.66 c0 0.34 -0.22 0.66 -0.64 0.66 l-4.6 0 c-0.34 0 -0.7 -0.12 -0.7 -0.7 z M168.23450000000003 18.86 l-0.78 -2.54 l-3.72 0 l-0.74 2.5 c-0.26 0.86 -1.58 0.6 -1.3 -0.28 c1.04 -3.5 2.06 -7.06 3.08 -10.6 c0.12 -0.38 0.44 -0.58 0.76 -0.58 c0.3 0 0.62 0.2 0.74 0.58 l3.18 10.6 c0.22 0.76 -0.96 1.18 -1.22 0.32 z M165.57450000000003 10.06 l-1.44 4.92 l2.94 0 c-0.5 -1.68 -0.96 -3.12 -1.5 -4.92 z M179.354 15.9 l0 2.86 c0 0.44 -0.34 0.64 -0.66 0.64 c-0.34 0 -0.66 -0.2 -0.66 -0.64 l0 -10.74 c0 -0.4 0.22 -0.66 0.66 -0.66 l2.7 0 c0.76 0 3.16 0.22 3.16 2.92 l0 2.5 c0 1.52 -0.56 2.48 -1.84 2.9 l1.36 2.74 c0.28 0.54 -0.14 0.98 -0.58 0.98 c-0.24 0 -0.54 -0.16 -0.7 -0.5 l-1.46 -3 l-1.98 0 z M183.234 12.780000000000001 l0 -2.5 c0 -0.48 -0.18 -1.58 -1.84 -1.58 l-2.04 0 l0 5.86 l1.86 0 c0.98 0 2.02 -0.22 2.02 -1.78 z M193.17350000000002 7.359999999999999 l6.04 0 c0.42 0 0.62 0.34 0.62 0.68 s-0.2 0.66 -0.62 0.66 l-2.28 0 l0 10.06 c0 0.42 -0.34 0.64 -0.68 0.64 s-0.66 -0.22 -0.66 -0.64 l0 -10.06 l-2.42 0 c-0.42 0 -0.62 -0.32 -0.62 -0.66 s0.2 -0.68 0.62 -0.68 z M211.71300000000002 16.96 l2.4 -6.36 l-0.6 -2.34 c-0.26 -0.96 1.08 -1.2 1.3 -0.36 l2.36 8.68 l2.54 -8.68 c0.26 -0.9 1.58 -0.52 1.32 0.34 l-3.1 10.54 c-0.12 0.38 -0.46 0.62 -0.78 0.62 c-0.36 0 -0.68 -0.22 -0.8 -0.62 l-1.64 -6.02 c-0.76 2 -1.56 4.04 -2.3 6.04 c-0.14 0.36 -0.46 0.6 -0.76 0.6 s-0.6 -0.2 -0.74 -0.64 l-3.18 -10.52 c-0.26 -0.86 0.96 -1.14 1.22 -0.38 z M229.59250000000003 15.86 l0 -4.96 c0 -2.4 1.24 -3.68 3.64 -3.68 l0.52 0 c2.38 0 3.64 1.28 3.64 3.68 l0 4.96 c0 2.2 -1.46 3.64 -3.64 3.64 l-0.52 0 c-2.22 0 -3.64 -1.46 -3.64 -3.64 z M233.23250000000002 18.16 l0.52 0 c1.44 0 2.3 -0.9 2.3 -2.3 l0 -4.96 c0 -1.56 -0.76 -2.36 -2.3 -2.36 l-0.52 0 c-1.52 0 -2.36 0.82 -2.36 2.36 l0 4.96 c0 1.46 0.92 2.3 2.36 2.3 z M247.65200000000002 15.9 l0 2.86 c0 0.44 -0.34 0.64 -0.66 0.64 c-0.34 0 -0.66 -0.2 -0.66 -0.64 l0 -10.74 c0 -0.4 0.22 -0.66 0.66 -0.66 l2.7 0 c0.76 0 3.16 0.22 3.16 2.92 l0 2.5 c0 1.52 -0.56 2.48 -1.84 2.9 l1.36 2.74 c0.28 0.54 -0.14 0.98 -0.58 0.98 c-0.24 0 -0.54 -0.16 -0.7 -0.5 l-1.46 -3 l-1.98 0 z M251.532 12.780000000000001 l0 -2.5 c0 -0.48 -0.18 -1.58 -1.84 -1.58 l-2.04 0 l0 5.86 l1.86 0 c0.98 0 2.02 -0.22 2.02 -1.78 z M261.83150000000006 18.76 l0 -10.76 c0 -0.42 0.32 -0.64 0.64 -0.64 s0.66 0.22 0.66 0.64 l0 4.84 l3.86 -5.18 c0.5 -0.68 1.64 -0.02 1.12 0.68 l-2.24 3.08 l2.74 7.1 c0.18 0.48 -0.18 0.88 -0.6 0.88 c-0.24 0 -0.52 -0.18 -0.66 -0.56 c-0.78 -2 -1.62 -4.08 -2.4 -6.12 l-1.82 2.36 l0 3.68 c0 0.42 -0.34 0.64 -0.66 0.64 s-0.64 -0.22 -0.64 -0.64 z M277.29100000000005 17.68 c-0.44 -0.82 0.68 -1.42 1.2 -0.6 c0.26 0.42 1.04 1.14 2.28 1.14 c0.52 0 1.82 -0.38 2 -1.86 c0.12 -0.9 -0.74 -1.78 -2.22 -2.52 c-2.08 -0.98 -3.66 -1.84 -3.66 -3.56 c0 -2.04 1.72 -3 3.56 -3 c1.66 0 2.58 1.02 2.9 1.54 c0.46 0.74 -0.54 1.46 -1.1 0.74 c-0.28 -0.36 -0.82 -0.96 -1.8 -0.96 c-1.1 0 -2.24 0.52 -2.24 1.68 c0 0.92 1.02 1.44 2.54 2.16 c1.78 0.88 3.64 1.74 3.36 4.08 c-0.22 1.84 -1.62 3.02 -3.34 3.02 c-1.3 0 -2.9 -0.7 -3.48 -1.86 z"/></g>
			</g>
		</svg>
	